<svg width="132" height="132" viewBox="0 0 132 132" fill="none" xmlns="http://www.w3.org/2000/svg">
<path d="M16.5 115.5C13.475 115.5 10.8854 114.423 8.73125 112.269C6.57708 110.115 5.5 107.525 5.5 104.5V38.5C5.5 35.475 6.57708 32.8854 8.73125 30.7313C10.8854 28.5771 13.475 27.5 16.5 27.5H33.825L44 16.5H77V27.5H48.8125L38.775 38.5H16.5V104.5H104.5V55H115.5V104.5C115.5 107.525 114.423 110.115 112.269 112.269C110.115 114.423 107.525 115.5 104.5 115.5H16.5ZM104.5 38.5V27.5H93.5V16.5H104.5V5.5H115.5V16.5H126.5V27.5H115.5V38.5H104.5ZM60.5 96.25C67.375 96.25 73.2188 93.8438 78.0313 89.0313C82.8438 84.2188 85.25 78.375 85.25 71.5C85.25 64.625 82.8438 58.7813 78.0313 53.9688C73.2188 49.1563 67.375 46.75 60.5 46.75C53.625 46.75 47.7813 49.1563 42.9688 53.9688C38.1563 58.7813 35.75 64.625 35.75 71.5C35.75 78.375 38.1563 84.2188 42.9688 89.0313C47.7813 93.8438 53.625 96.25 60.5 96.25ZM60.5 85.25C56.65 85.25 53.3958 83.9208 50.7375 81.2625C48.0792 78.6042 46.75 75.35 46.75 71.5C46.75 67.65 48.0792 64.3958 50.7375 61.7375C53.3958 59.0792 56.65 57.75 60.5 57.75C64.35 57.75 67.6042 59.0792 70.2625 61.7375C72.9208 64.3958 74.25 67.65 74.25 71.5C74.25 75.35 72.9208 78.6042 70.2625 81.2625C67.6042 83.9208 64.35 85.25 60.5 85.25Z" fill="#989898"/>
</svg>
