<svg viewBox="0 0 71 61" fill="" xmlns="http://www.w3.org/2000/svg">
<path d="M21.3197 61C19.3654 61 17.6924 60.4027 16.3007 59.2081C14.909 58.0135 14.2131 56.5775 14.2131 54.9C14.2131 53.2225 14.909 51.7865 16.3007 50.5919C17.6924 49.3973 19.3654 48.8 21.3197 48.8C23.274 48.8 24.947 49.3973 26.3387 50.5919C27.7304 51.7865 28.4263 53.2225 28.4263 54.9C28.4263 56.5775 27.7304 58.0135 26.3387 59.2081C24.947 60.4027 23.274 61 21.3197 61ZM56.8525 61C54.8982 61 53.2252 60.4027 51.8335 59.2081C50.4418 58.0135 49.746 56.5775 49.746 54.9C49.746 53.2225 50.4418 51.7865 51.8335 50.5919C53.2252 49.3973 54.8982 48.8 56.8525 48.8C58.8068 48.8 60.4798 49.3973 61.8715 50.5919C63.2632 51.7865 63.9591 53.2225 63.9591 54.9C63.9591 56.5775 63.2632 58.0135 61.8715 59.2081C60.4798 60.4027 58.8068 61 56.8525 61ZM18.2994 12.2L26.8273 27.45H51.7003L61.4718 12.2H18.2994ZM14.9238 6.1H67.3347C68.6968 6.1 69.7332 6.62104 70.4438 7.66312C71.1545 8.70521 71.1841 9.76 70.5327 10.8275L57.9185 30.3475C57.2671 31.3642 56.3936 32.1521 55.298 32.7112C54.2024 33.2704 53.0031 33.55 51.7003 33.55H25.2283L21.3197 39.65H63.9591V45.75H21.3197C18.6547 45.75 16.6412 44.746 15.2791 42.7381C13.917 40.7302 13.8578 38.735 15.1015 36.7525L19.8984 29.28L7.10657 6.1H0V0H11.5482L14.9238 6.1Z" fill="black" fill-opacity="0.2"/>
</svg>
