<svg  viewBox="0 0 70 67" fill="none" xmlns="http://www.w3.org/2000/svg">
<path d="M3.71875 67V33.9188H12.4687V60.3H43.0937V44.1362L54.5781 35.3425C56.6927 33.7233 58.3333 31.9087 59.5 29.8987C60.6667 27.8887 61.25 25.7392 61.25 23.45C61.25 21.2167 60.6484 19.095 59.4453 17.085C58.2422 15.075 56.6198 13.2604 54.5781 11.6412L51.8437 9.46375L37.9531 20.1H20.4531L15.75 23.7013L9.51562 19.0112L16.8437 13.4H34.3437L51.8437 0L60.8125 6.8675C63.7292 9.10083 65.9896 11.6273 67.5938 14.4469C69.1979 17.2665 70 20.2675 70 23.45C70 26.6325 69.1979 29.6335 67.5938 32.4531C65.9896 35.2727 63.7292 37.7992 60.8125 40.0325L51.8437 46.9V67H3.71875ZM25.2656 51.3387L2.51562 33.9188C1.71354 33.3046 1.09375 32.5788 0.65625 31.7412C0.21875 30.9037 0 30.0383 0 29.145C0 28.2517 0.21875 27.4002 0.65625 26.5906C1.09375 25.781 1.71354 25.0692 2.51562 24.455L11.7031 17.3363L25.2656 27.6375C27.3073 29.2008 28.8932 31.0015 30.0234 33.0394C31.1536 35.0773 31.7187 37.2129 31.7187 39.4463C31.7187 41.6796 31.1719 43.8152 30.0781 45.8531C28.9844 47.891 27.3802 49.7196 25.2656 51.3387Z" fill="black" fill-opacity="0.2"/>
</svg>
